# Blender v2.76 (sub 0) OBJ File: 'lantern.blend'
# www.blender.org
mtllib lantern.mtl
o Lantern_lantern
v 0.650000 0.800001 0.434822
v 0.650000 0.800001 0.334822
v 0.650000 1.000001 0.434822
v 0.650000 1.000001 0.334822
v 0.350000 0.800001 0.434822
v 0.350000 0.800001 0.334822
v 0.350000 1.000001 0.434822
v 0.350000 1.000001 0.334822
v 0.700000 0.800001 0.484822
v 0.300000 0.800001 0.484822
v 0.700000 0.000000 0.484822
v 0.300000 0.000000 0.484822
v 0.650000 0.750001 0.284822
v 0.700000 0.800001 0.334822
v 0.350000 0.750001 0.284822
v 0.300000 0.800001 0.334822
v 0.650000 0.050001 0.284822
v 0.700000 0.000000 0.334822
v 0.350000 0.050001 0.284822
v 0.300000 0.000000 0.334822
v 0.400000 0.100001 0.584822
v 0.300000 0.000001 0.484822
v 0.350000 0.050001 0.571424
v 0.313397 0.013398 0.534822
v 0.600000 0.100001 0.584822
v 0.700000 0.000001 0.484822
v 0.650000 0.050001 0.571424
v 0.686603 0.013398 0.534822
v 0.400000 0.700001 0.584822
v 0.300000 0.800001 0.484822
v 0.350000 0.750001 0.571424
v 0.313397 0.786603 0.534822
v 0.600000 0.700001 0.584822
v 0.700000 0.800001 0.484822
v 0.650000 0.750001 0.571424
v 0.686603 0.786603 0.534822
vt 0.930546 0.361607
vt 0.930546 0.575893
vt 0.819453 0.575893
vt 0.819453 0.361607
vt 0.930546 0.308036
vt 0.930546 0.629464
vt 0.819454 0.629464
vt 0.819454 0.308036
vt 0.102443 0.441964
vt 0.213534 0.441964
vt 0.269080 0.495536
vt 0.102443 0.495536
vt 0.763909 0.308036
vt 0.986091 0.308036
vt 0.986092 0.629464
vt 0.763909 0.629464
vt 0.132598 0.308036
vt 0.211152 0.254464
vt 0.211152 0.683036
vt 0.132598 0.629464
vt 0.213534 0.495536
vt 0.269080 0.441964
vt 0.088557 0.040179
vt 0.255193 0.040179
vt 0.255193 0.897322
vt 0.088557 0.897322
vt 0.005238 0.093750
vt 0.338512 0.093750
vt 0.338512 0.843750
vt 0.005238 0.843750
vt 0.144102 0.629464
vt 0.144102 0.308036
vt 0.199648 0.254464
vt 0.199648 0.683036
vt 0.451409 0.147321
vt 0.673591 0.147321
vt 0.673591 0.790179
vt 0.451409 0.790179
vt 0.255193 0.254464
vt 0.255194 0.683036
vt 0.088557 0.683036
vt 0.088557 0.254464
vt 0.591253 0.668681
vt 0.533748 0.683036
vt 0.533748 0.254464
vt 0.591253 0.268818
vt 0.211152 0.040179
vt 0.211152 0.897322
vt 0.132598 0.843750
vt 0.132598 0.093750
vt 0.132598 0.897322
vt 0.132598 0.040179
vt 0.211152 0.093750
vt 0.211152 0.843750
vt 0.533747 0.790179
vt 0.533748 0.147321
vt 0.591253 0.093750
vt 0.591253 0.843750
vt 0.533748 0.843750
vt 0.533748 0.093750
vt 0.591253 0.054533
vt 0.591253 0.882967
vt 0.533748 0.668681
vt 0.533747 0.268819
vt 0.591253 0.308036
vt 0.591253 0.629464
vt 0.533748 0.629464
vt 0.533748 0.308036
vt 0.591253 0.361607
vt 0.591253 0.575893
vt 0.533748 0.897321
vt 0.533747 0.040179
vt 0.533747 0.054533
vt 0.591253 0.040179
vt 0.591253 0.897322
vt 0.533747 0.882967
vt 0.591253 0.843750
vt 0.591252 0.147321
vt 0.591253 0.790179
vn 1.000000 0.000000 0.000000
vn 0.000000 1.000000 0.000000
vn -1.000000 0.000000 0.000000
vn 0.000000 -0.000000 1.000000
vn 0.000000 0.707100 -0.707100
vn 0.000000 0.000000 -1.000000
vn 0.000000 -1.000000 0.000000
vn -0.000000 0.965900 0.258800
vn 0.000000 -0.707100 -0.707100
vn 0.707100 0.000000 -0.707100
vn -0.707100 0.000000 -0.707100
vn 0.258800 -0.000000 0.965900
vn 0.707100 -0.000000 0.707100
vn 0.000000 0.707100 0.707100
vn 0.000000 0.258800 0.965900
vn -0.000000 -0.258800 0.965900
vn 0.000000 -0.707100 0.707100
vn -0.965900 -0.000000 0.258800
vn 0.965900 0.000000 0.258800
vn -0.707100 -0.000000 0.707100
vn -0.258800 -0.000000 0.965900
vn 0.000000 -0.965900 0.258800
usemtl lantern
s off
f 2/1/1 4/2/1 3/3/1 1/4/1
f 4/5/2 8/6/2 7/7/2 3/8/2
f 8/1/3 6/2/3 5/3/3 7/4/3
f 2/9/2 1/10/2 9/11/2 14/12/2
f 1/13/4 3/14/4 7/15/4 5/16/4
f 15/17/5 16/18/5 14/19/5 13/20/5
f 5/21/2 6/12/2 16/9/2 10/22/2
f 10/23/3 16/24/3 20/25/3 12/26/3
f 15/27/6 13/28/6 17/29/6 19/30/6
f 1/31/2 5/32/2 10/33/2 9/34/2
f 33/35/4 29/36/4 21/37/4 25/38/4
f 2/14/6 6/15/6 8/16/6 4/13/6
f 20/39/7 18/40/7 11/41/7 12/42/7
f 36/43/8 34/44/8 30/45/8 32/46/8
f 19/20/9 17/17/9 18/18/9 20/19/9
f 14/47/10 18/48/10 17/49/10 13/50/10
f 20/51/11 16/52/11 15/53/11 19/54/11
f 14/23/1 9/24/1 11/25/1 18/26/1
f 33/55/12 25/56/12 27/57/12 35/58/12
f 35/59/13 27/60/13 28/61/13 36/62/13
f 36/63/14 32/64/14 31/65/14 35/66/14
f 35/67/15 31/68/15 29/69/15 33/70/15
f 25/69/16 21/70/16 23/67/16 27/68/16
f 27/65/17 23/66/17 24/63/17 28/64/17
f 30/71/18 22/72/18 24/61/18 32/62/18
f 28/73/19 26/74/19 34/75/19 36/76/19
f 32/76/20 24/73/20 23/57/20 31/77/20
f 31/59/21 23/60/21 21/78/21 29/79/21
f 26/45/22 28/46/22 24/43/22 22/44/22
l 22 12
l 11 26
l 30 10
l 9 34
