# Blender v2.75 (sub 1) OBJ File: 'DHD.blend'
# www.blender.org
v 0.500000 0.000530 0.500000
v 0.200000 0.750530 0.500000
v 0.755000 0.408153 0.500000
v 0.500000 0.368369 0.755000
v 0.245000 0.408153 0.500000
v 0.500000 0.018099 0.200000
v 0.050000 0.750530 0.500000
v 0.500000 0.675530 0.800000
v 0.800000 0.750530 0.500000
v 0.500000 0.667760 1.116808
v 0.500000 0.863030 0.050000
v 0.500000 0.638030 0.950000
v 0.950000 0.750530 0.500000
v 0.252483 0.842384 0.522964
v 1.100000 0.817760 0.516808
v -0.100000 0.817760 0.516807
v 0.500000 0.967760 -0.083192
v 0.500000 0.931380 -0.092287
v -0.100000 0.781380 0.507712
v 1.100000 0.781380 0.507713
v 0.500000 0.631380 1.107713
v 0.640598 0.876485 0.531489
v 0.500000 0.904263 0.275447
v 0.500000 0.780505 0.770480
v 0.747517 0.842384 0.522964
v 0.500000 0.910587 0.540014
v 0.359402 0.876485 0.531489
v 0.500000 0.911635 0.390891
v 0.500000 0.841336 0.672087
v 0.500000 0.053006 0.245000
v 0.200000 0.016502 0.500000
v 0.500000 0.014905 0.800000
v 0.800000 0.016502 0.500000
v 0.500000 0.447937 0.245000
v 0.245000 0.049125 0.500000
v 0.500000 0.045244 0.755000
v 0.755000 0.049125 0.500000
v 0.977218 0.832837 0.520577
v 0.500000 0.713533 0.997795
v 0.500000 0.952141 0.043359
v 0.022782 0.832837 0.520577
v 0.800000 0.000530 0.500000
v 0.500000 0.000530 0.200000
v 0.691250 0.437991 0.308750
v 0.500000 0.000530 0.800000
v 0.691250 0.378315 0.691250
v 0.200000 0.000530 0.500000
v 0.308750 0.378315 0.691250
v 0.308750 0.437991 0.308750
v 0.500000 0.825530 0.200000
v 0.837500 0.750530 0.500000
v 0.500000 0.834905 0.162500
v 0.500000 0.666155 0.837500
v 0.162500 0.750530 0.500000
v 0.275000 0.694280 0.725000
v 0.275000 0.806780 0.275000
v 0.725000 0.806780 0.275000
v 1.062500 0.758242 0.501929
v 0.500000 0.898867 -0.060572
v 0.500000 0.617617 1.064428
v -0.062500 0.758242 0.501928
v 0.147941 0.662515 0.852059
v 0.147941 0.838544 0.147941
v 0.852059 0.838544 0.147941
v 0.852059 0.662515 0.852059
v 1.092898 0.823523 0.518249
v 0.500000 0.971747 -0.074650
v 0.500000 0.675298 1.111146
v -0.092898 0.823523 0.518248
v 0.950000 0.705260 0.966808
v 0.050000 0.668880 0.957713
v 0.950000 0.930260 0.066808
v 0.050000 0.893880 0.057713
v 0.950000 0.668880 0.957713
v 0.050000 0.705260 0.966808
v 0.950000 0.893880 0.057713
v 0.050000 0.930260 0.066808
v 0.500000 0.955900 -0.086157
v -0.100000 0.805900 0.513842
v 1.100000 0.805900 0.513843
v 0.500000 0.655900 1.113843
v 0.640598 0.842384 0.522964
v 0.500000 0.877533 0.382366
v 0.500000 0.807234 0.663562
v 0.359402 0.842384 0.522964
v 0.314363 0.795974 0.708601
v 0.142087 0.922315 0.162664
v 0.857913 0.922315 0.162664
v 0.685637 0.795974 0.708601
v 0.611651 0.903566 0.538259
v 0.500000 0.931479 0.426608
v 0.500000 0.875653 0.649910
v 0.388349 0.903566 0.538259
v 0.605448 0.902847 0.426041
v 0.605448 0.850123 0.636937
v 0.394552 0.850123 0.636937
v 0.394552 0.902847 0.426041
v 0.725000 0.017700 0.275000
v 0.725000 0.015304 0.725000
v 0.275000 0.015304 0.725000
v 0.275000 0.017700 0.275000
v 0.500000 0.035646 0.204279
v 0.204279 0.032539 0.500000
v 0.500000 0.029431 0.795721
v 0.795721 0.032539 0.500000
v 0.691250 0.052036 0.308750
v 0.691250 0.046215 0.691250
v 0.308750 0.046215 0.691250
v 0.308750 0.052036 0.308750
v 0.500000 0.160408 0.267500
v 0.267500 0.147208 0.500000
v 0.500000 0.134008 0.732500
v 0.732500 0.147208 0.500000
v 0.142087 0.743359 0.878490
v 0.314363 0.888793 0.337326
v 0.685637 0.888793 0.337326
v 0.857913 0.743359 0.878490
v 0.858401 0.839997 0.522367
v 0.500000 0.750397 0.880768
v 0.500000 0.929597 0.163966
v 0.141599 0.839997 0.522367
v 0.725000 0.000530 0.275000
v 0.725000 0.000530 0.725000
v 0.275000 0.000530 0.725000
v 0.275000 0.000530 0.275000
v 0.725000 0.694280 0.725000
v 0.753125 0.813811 0.246875
v 0.753125 0.687248 0.753125
v 0.246875 0.687248 0.753125
v 0.246875 0.813811 0.246875
v 0.921875 0.863711 0.080053
v 0.921875 0.652773 0.923803
v 0.078125 0.652773 0.923803
v 0.078125 0.863711 0.080053
v 0.944674 0.934691 0.073575
v 0.944673 0.712354 0.962922
v 0.055326 0.712354 0.962922
v 0.055327 0.934691 0.073575
v 0.950000 0.693400 0.963843
v 0.050000 0.693400 0.963843
v 0.950000 0.918400 0.063843
v 0.050000 0.918400 0.063843
v 0.605448 0.868746 0.417515
v 0.605448 0.816022 0.628412
v 0.394552 0.868746 0.417515
v 0.394552 0.816022 0.628412
v 0.582934 0.918839 0.453960
v 0.582934 0.877372 0.619828
v 0.417066 0.918839 0.453960
v 0.417066 0.877372 0.619828
v 0.721790 0.034869 0.278210
v 0.721790 0.030208 0.721790
v 0.278209 0.030208 0.721790
v 0.278210 0.034869 0.278209
v 0.674375 0.157108 0.325625
v 0.674375 0.137308 0.674375
v 0.325625 0.137308 0.674375
v 0.325625 0.157108 0.325625
v 0.231199 0.772797 0.791168
v 0.231199 0.907197 0.253566
v 0.768801 0.907197 0.253566
v 0.768801 0.772797 0.791168
vt 0.878088 0.872403
vt 0.878082 0.820835
vt 0.916759 0.833722
vt 0.929657 0.872396
vt 0.916770 0.911074
vt 0.878095 0.923971
vt 0.839417 0.911084
vt 0.826520 0.872410
vt 0.839407 0.833732
vt 0.940978 0.872679
vt 0.924945 0.823239
vt 0.930938 0.817057
vt 0.948972 0.872670
vt 0.931062 0.928324
vt 0.925054 0.922155
vt 0.505316 0.900099
vt 0.554961 0.896714
vt 0.556164 0.931801
vt 0.503846 0.937286
vt 0.507908 0.861988
vt 0.554725 0.860483
vt 0.509090 0.824039
vt 0.554732 0.824039
vt 0.507908 0.786090
vt 0.554725 0.787596
vt 0.505316 0.747979
vt 0.554961 0.751364
vt 0.503846 0.710793
vt 0.556164 0.716277
vt 0.071017 0.563180
vt 0.077656 0.567169
vt 0.036737 0.646468
vt 0.030316 0.644641
vt 0.023920 0.642864
vt 0.064682 0.560046
vt 0.398885 0.946321
vt 0.401002 0.953065
vt 0.312880 0.980539
vt 0.312113 0.973946
vt 0.311300 0.967319
vt 0.395969 0.939146
vt 0.972954 0.872643
vt 0.952190 0.950015
vt 0.952018 0.795318
vt 0.966950 0.779922
vt 0.997013 0.872616
vt 0.967157 0.965378
vt 0.876973 0.806740
vt 0.876978 0.798499
vt 0.812890 0.872602
vt 0.828754 0.922098
vt 0.822739 0.928259
vt 0.804895 0.872584
vt 0.500061 0.013384
vt 0.621140 0.015168
vt 0.621064 0.018288
vt 0.500061 0.016899
vt 0.379049 0.018285
vt 0.378973 0.015164
vt 0.378855 0.012627
vt 0.500061 0.011048
vt 0.621258 0.012631
vt 0.876554 0.971730
vt 0.801585 0.949926
vt 0.876645 0.946999
vt 0.877195 0.971730
vt 0.877134 0.946999
vt 0.877279 0.996527
vt 0.876440 0.996527
vt 0.786599 0.965270
vt 0.876993 0.773780
vt 0.822996 0.816993
vt 0.801942 0.795228
vt 0.787028 0.779814
vt 0.877008 0.748984
vt 0.780913 0.872529
vt 0.756854 0.872473
vt 0.306497 0.446321
vt 0.319124 0.583988
vt 0.251856 0.624313
vt 0.233195 0.432942
vt 0.318070 0.258169
vt 0.368943 0.321021
vt 0.421151 0.386016
vt 0.377177 0.459787
vt 0.389647 0.544292
vt 0.253386 0.019389
vt 0.253557 0.022947
vt 0.128169 0.030312
vt 0.127942 0.027119
vt 0.127824 0.024619
vt 0.253275 0.017059
vt 0.746693 0.019395
vt 0.872094 0.027126
vt 0.871867 0.030318
vt 0.746522 0.022952
vt 0.746804 0.017066
vt 0.872212 0.024626
vt 0.000158 0.037217
vt 0.000461 0.040946
vt 0.999842 0.037222
vt 0.999539 0.040950
vt 0.999394 0.034704
vt 0.000606 0.034698
vt 0.001147 0.048788
vt 0.128642 0.036863
vt 0.129871 0.049133
vt 0.005765 0.060608
vt 0.998853 0.048790
vt 0.994236 0.060607
vt 0.870165 0.049133
vt 0.871394 0.036866
vt 0.746168 0.030394
vt 0.745632 0.041745
vt 0.620902 0.037349
vt 0.620905 0.024710
vt 0.253910 0.030391
vt 0.379207 0.024708
vt 0.379211 0.037349
vt 0.254447 0.041746
vt 0.500061 0.024251
vt 0.500061 0.035683
vt 0.594858 0.465247
vt 0.564245 0.403402
vt 0.578808 0.386016
vt 0.622782 0.459787
vt 0.610312 0.544292
vt 0.589451 0.534132
vt 0.567712 0.523214
vt 0.570699 0.469908
vt 0.548855 0.422387
vt 0.581089 0.660979
vt 0.680835 0.583988
vt 0.748102 0.624312
vt 0.602295 0.728190
vt 0.418870 0.660979
vt 0.397664 0.728191
vt 0.443152 0.601411
vt 0.556807 0.601411
vt 0.499979 0.280866
vt 0.499979 0.203464
vt 0.681888 0.258169
vt 0.631015 0.321021
vt 0.499979 0.355864
vt 0.693462 0.446321
vt 0.766764 0.432941
vt 0.499979 0.482946
vt 0.524408 0.560001
vt 0.475551 0.560001
vt 0.432246 0.523214
vt 0.429259 0.469908
vt 0.451104 0.422387
vt 0.499979 0.409253
vt 0.405101 0.465247
vt 0.410508 0.534132
vt 0.435714 0.403403
vt 0.538316 0.583817
vt 0.461643 0.583817
vt 0.499979 0.384574
vt 0.576105 0.964879
vt 0.557955 0.964583
vt 0.575282 0.930901
vt 0.090389 0.579510
vt 0.053345 0.651266
vt 0.385745 0.924659
vt 0.309126 0.950170
vt 0.576105 0.683200
vt 0.575282 0.717178
vt 0.557955 0.683496
vt 0.226267 0.968140
vt 0.225015 0.974016
vt 0.143190 0.945085
vt 0.146005 0.940376
vt 0.148898 0.935465
vt 0.227605 0.961642
vt 0.083292 0.884534
vt 0.079356 0.887903
vt 0.032726 0.816000
vt 0.037813 0.813946
vt 0.043112 0.811847
vt 0.087800 0.880677
vt 0.022785 0.730355
vt 0.016786 0.730684
vt 0.029412 0.730038
vt 0.508433 0.973064
vt 0.508434 0.675014
vt 0.230714 0.946204
vt 0.157470 0.920770
vt 0.573322 0.752249
vt 0.572701 0.788276
vt 0.099494 0.870670
vt 0.058955 0.805648
vt 0.571217 0.824039
vt 0.572701 0.859802
vt 0.045145 0.729351
vt 0.573322 0.895829
vt 0.842577 0.419524
vt 0.734381 0.193473
vt 0.784076 0.132261
vt 0.914478 0.407000
vt 0.883784 0.708481
vt 0.817591 0.667167
vt 0.499979 0.123798
vt 0.265578 0.193473
vt 0.215882 0.132261
vt 0.499979 0.048613
vt 0.623241 0.801179
vt 0.643077 0.872652
vt 0.376718 0.801180
vt 0.356882 0.872652
vt 0.116175 0.708481
vt 0.182367 0.667167
vt 0.157381 0.419524
vt 0.085480 0.407001
vt 0.438339 0.947751
vt 0.443514 0.905863
vt 0.450241 0.864467
vt 0.453323 0.824039
vt 0.450241 0.783611
vt 0.443515 0.742215
vt 0.438340 0.700327
vt 0.877114 0.938756
vt 0.876674 0.938756
vt 0.828982 0.823181
vt 0.443663 0.989167
vt 0.443664 0.658911
vn 0.000000 -1.000000 0.000000
vn 0.000000 -0.970100 -0.242500
vn 0.943200 -0.078600 -0.322900
vn 0.948000 -0.084700 0.306800
vn 0.317900 -0.089500 0.943900
vn -0.317900 -0.089500 0.943900
vn -0.948000 -0.084700 0.306800
vn -0.943200 -0.078600 -0.322900
vn 0.308500 0.227700 -0.923600
vn 0.316200 0.000000 -0.948700
vn -0.316200 0.000000 -0.948700
vn -0.308500 0.227700 -0.923600
vn -0.077700 -0.972600 -0.219200
vn -0.077700 -0.961300 -0.264300
vn -0.324900 -0.229400 0.917500
vn 0.324900 -0.229400 0.917500
vn 0.211600 0.587000 0.781500
vn -0.211600 0.587000 0.781500
vn -0.024000 -0.948800 -0.315000
vn 0.024000 -0.948800 -0.315000
vn 0.024000 -0.985400 -0.168600
vn -0.024000 -0.985400 -0.168600
vn 0.077700 -0.961300 -0.264300
vn 0.077700 -0.972600 -0.219200
vn -0.022200 0.971600 0.235500
vn -0.022200 0.968100 0.249400
vn 0.000000 0.970100 0.242500
vn 0.951500 -0.074600 0.298500
vn 0.951500 0.074600 -0.298500
vn 0.628200 0.777900 -0.014900
vn 0.628200 0.679400 0.379200
vn -0.951500 0.074600 -0.298500
vn -0.951500 -0.074600 0.298500
vn -0.628100 0.679400 0.379200
vn -0.628100 0.778000 -0.014900
vn 0.324900 0.229400 -0.917500
vn -0.324900 0.229400 -0.917500
vn -0.211600 0.885700 -0.413300
vn 0.211600 0.885700 -0.413300
vn 0.177600 -0.687200 -0.704500
vn -0.177600 -0.687200 -0.704500
vn -0.528800 -0.765100 -0.367500
vn -0.528800 -0.848000 -0.035800
vn 0.528800 -0.848000 -0.035800
vn 0.528800 -0.765100 -0.367500
vn -0.177600 -0.937800 0.298200
vn 0.177600 -0.937800 0.298200
vn 0.625500 0.779200 -0.039600
vn 0.625500 0.668900 0.401600
vn 0.007400 0.975100 0.221600
vn -0.007400 0.975100 0.221600
vn -0.007400 0.964700 0.263300
vn 0.007400 0.964700 0.263300
vn 0.022200 0.968100 0.249400
vn 0.022200 0.971600 0.235500
vn 0.077100 0.982700 0.168600
vn -0.077100 0.982700 0.168600
vn -0.077100 0.946400 0.313700
vn 0.077100 0.946400 0.313700
vn -0.625500 0.668900 0.401600
vn -0.625500 0.779200 -0.039600
vn -0.236700 0.880000 -0.411800
vn 0.236700 0.880000 -0.411800
vn 0.236700 0.582700 0.777500
vn -0.236700 0.582700 0.777500
vn 0.312100 0.197000 -0.929400
vn 0.132400 0.913100 -0.385600
vn -0.132400 0.913100 -0.385600
vn -0.312100 0.197000 -0.929400
vn -0.948700 0.000000 0.316200
vn -0.917000 0.253900 0.307700
vn -0.922100 0.237500 -0.305500
vn -0.948700 0.000000 -0.316200
vn 0.316200 0.000000 0.948700
vn 0.304200 0.265900 0.914700
vn -0.304200 0.265900 0.914700
vn -0.316200 0.000000 0.948700
vn 0.948700 0.000000 -0.316200
vn 0.922100 0.237500 -0.305500
vn 0.917000 0.253900 0.307700
vn 0.948700 0.000000 0.316200
vn 0.312900 -0.074900 -0.946800
vn -0.312900 -0.074900 -0.946800
vn -0.364500 0.921600 0.133200
vn -0.923000 0.220300 0.315400
vn -0.930600 0.205500 -0.303000
vn -0.384000 0.916000 -0.116400
vn 0.117000 0.924500 0.362700
vn 0.305300 0.230900 0.923900
vn -0.305300 0.230900 0.923900
vn -0.117000 0.924500 0.362700
vn 0.384000 0.916000 -0.116400
vn 0.930600 0.205500 -0.303000
vn 0.923000 0.220300 0.315400
vn 0.364500 0.921600 0.133200
vn 0.082700 0.960000 0.267600
vn 0.082700 0.973000 0.215700
vn 0.062000 0.972900 0.222600
vn 0.062000 0.963200 0.261500
vn -0.027600 0.947200 0.319500
vn 0.027600 0.947200 0.319500
vn 0.020700 0.953600 0.300400
vn -0.020700 0.953600 0.300400
vn 0.027600 0.986100 0.163800
vn -0.027600 0.986100 0.163800
vn -0.020700 0.982800 0.183700
vn 0.020700 0.982800 0.183700
vn -0.082700 0.973000 0.215700
vn -0.082700 0.960000 0.267600
vn -0.062000 0.963200 0.261500
vn -0.062000 0.972900 0.222600
vn 0.934200 -0.119400 -0.336100
vn 0.948500 -0.128300 0.289600
vn 0.321700 -0.135800 0.937000
vn -0.321700 -0.135800 0.937000
vn -0.948500 -0.128300 0.289600
vn -0.934200 -0.119400 -0.336100
vn 0.307100 -0.113600 -0.944900
vn -0.307100 -0.113600 -0.944900
s off
f 1/1/1 43/2/1 122/3/1 42/4/1
f 1/1/1 42/4/1 123/5/1 45/6/1
f 1/1/1 45/6/1 124/7/1 47/8/1
f 1/1/1 47/8/1 125/9/1 43/2/1
f 2/10/2 55/11/2 129/12/2 54/13/2
f 2/10/2 54/13/2 130/14/2 56/15/2
f 3/16/3 113/17/3 155/18/3 44/19/3
f 3/16/4 46/20/4 156/21/4 113/17/4
f 4/22/5 112/23/5 156/21/5 46/20/5
f 4/22/6 48/24/6 157/25/6 112/23/6
f 5/26/7 111/27/7 157/25/7 48/24/7
f 5/26/8 49/28/8 158/29/8 111/27/8
f 6/30/9 102/31/9 151/32/9 98/33/9
f 6/30/10 98/33/10 122/34/10 43/35/10
f 6/36/11 43/37/11 125/38/11 101/39/11
f 6/36/12 101/39/12 154/40/12 102/41/12
f 7/42/2 63/43/2 130/14/2 54/13/2
f 7/42/2 54/13/2 129/12/2 62/44/2
f 7/42/13 62/44/13 133/45/13 61/46/13
f 7/42/14 61/46/14 134/47/14 63/43/14
f 8/48/2 53/49/2 129/12/2 55/11/2
f 9/50/2 57/51/2 127/52/2 51/53/2
f 10/54/15 75/55/15 140/56/15 81/57/15
f 10/54/16 81/57/16 139/58/16 70/59/16
f 10/54/17 70/59/17 136/60/17 68/61/17
f 10/54/18 68/61/18 137/62/18 75/55/18
f 11/63/2 64/64/2 127/52/2 52/65/2
f 11/66/2 52/67/2 130/14/2 63/43/2
f 11/66/19 63/43/19 134/47/19 59/68/19
f 11/63/20 59/69/20 131/70/20 64/64/20
f 12/71/2 62/44/2 129/12/2 53/49/2
f 12/71/2 53/49/2 128/72/2 65/73/2
f 12/71/21 65/73/21 132/74/21 60/75/21
f 12/71/22 60/75/22 133/45/22 62/44/22
f 13/76/2 65/73/2 128/72/2 51/53/2
f 13/76/2 51/53/2 127/52/2 64/64/2
f 13/76/23 64/64/23 131/70/23 58/77/23
f 13/76/24 58/77/24 132/74/24 65/73/24
f 14/78/25 115/79/25 160/80/25 121/81/25
f 14/78/26 121/81/26 159/82/26 86/83/26
f 14/78/27 86/83/27 146/84/27 85/85/27
f 14/78/27 85/85/27 145/86/27 115/79/27
f 15/87/28 70/59/28 139/58/28 80/88/28
f 15/87/29 80/88/29 141/89/29 72/90/29
f 15/87/30 72/90/30 135/91/30 66/92/30
f 15/87/31 66/92/31 136/60/31 70/59/31
f 16/93/32 77/94/32 142/95/32 79/96/32
f 16/93/33 79/96/33 140/56/33 75/55/33
f 16/93/34 75/55/34 137/62/34 69/97/34
f 16/93/35 69/97/35 138/98/35 77/94/35
f 17/99/36 72/90/36 141/89/36 78/100/36
f 17/101/37 78/102/37 142/95/37 77/94/37
f 17/101/38 77/94/38 138/98/38 67/103/38
f 17/99/39 67/104/39 135/91/39 72/90/39
f 18/105/40 76/106/40 131/107/40 59/108/40
f 18/109/41 59/110/41 134/111/41 73/112/41
f 18/109/37 73/112/37 142/95/37 78/102/37
f 18/105/36 78/100/36 141/89/36 76/106/36
f 19/113/42 73/112/42 134/111/42 61/114/42
f 19/113/43 61/114/43 133/115/43 71/116/43
f 19/113/33 71/116/33 140/56/33 79/96/33
f 19/113/32 79/96/32 142/95/32 73/112/32
f 20/117/44 74/118/44 132/119/44 58/120/44
f 20/117/45 58/120/45 131/107/45 76/106/45
f 20/117/29 76/106/29 141/89/29 80/88/29
f 20/117/28 80/88/28 139/58/28 74/118/28
f 21/121/46 71/116/46 133/115/46 60/122/46
f 21/121/47 60/122/47 132/119/47 74/118/47
f 21/121/16 74/118/16 139/58/16 81/57/16
f 21/121/15 81/57/15 140/56/15 71/116/15
f 22/123/28 95/124/28 144/125/28 82/126/28
f 22/123/29 82/126/29 143/127/29 94/128/29
f 22/123/48 94/128/48 147/129/48 90/130/48
f 22/123/49 90/130/49 148/131/49 95/124/49
f 23/132/50 116/133/50 161/134/50 120/135/50
f 23/136/51 120/137/51 160/80/51 115/79/51
f 23/136/27 115/79/27 145/86/27 83/138/27
f 23/132/27 83/139/27 143/127/27 116/133/27
f 24/140/52 86/83/52 159/82/52 119/141/52
f 24/140/53 119/141/53 162/142/53 89/143/53
f 24/140/27 89/143/27 144/125/27 84/144/27
f 24/140/27 84/144/27 146/84/27 86/83/27
f 25/145/54 89/143/54 162/142/54 118/146/54
f 25/145/55 118/146/55 161/134/55 116/133/55
f 25/145/27 116/133/27 143/127/27 82/126/27
f 25/145/27 82/126/27 144/125/27 89/143/27
f 26/147/56 90/130/56 147/129/56 91/148/56
f 26/147/57 91/149/57 149/150/57 93/151/57
f 26/147/58 93/151/58 150/152/58 92/153/58
f 26/147/59 92/153/59 148/131/59 90/130/59
f 27/154/32 97/155/32 145/86/32 85/85/32
f 27/154/33 85/85/33 146/84/33 96/156/33
f 27/154/60 96/156/60 150/152/60 93/151/60
f 27/154/61 93/151/61 149/150/61 97/155/61
f 28/157/36 94/128/36 143/127/36 83/139/36
f 28/158/37 83/138/37 145/86/37 97/155/37
f 28/158/62 97/155/62 149/150/62 91/149/62
f 28/157/63 91/148/63 147/129/63 94/128/63
f 29/159/15 96/156/15 146/84/15 84/144/15
f 29/159/16 84/144/16 144/125/16 95/124/16
f 29/159/64 95/124/64 148/131/64 92/153/64
f 29/159/65 92/153/65 150/152/65 96/156/65
f 30/160/66 110/161/66 155/18/66 106/162/66
f 30/163/67 106/164/67 151/32/67 102/31/67
f 30/165/68 102/41/68 154/40/68 109/166/68
f 30/167/69 109/168/69 158/29/69 110/169/69
f 31/170/70 47/171/70 124/172/70 100/173/70
f 31/170/71 100/173/71 153/174/71 103/175/71
f 31/170/72 103/175/72 154/40/72 101/39/72
f 31/170/73 101/39/73 125/38/73 47/171/73
f 32/176/74 45/177/74 123/178/74 99/179/74
f 32/176/75 99/179/75 152/180/75 104/181/75
f 32/176/76 104/181/76 153/174/76 100/173/76
f 32/176/77 100/173/77 124/172/77 45/177/77
f 33/182/78 42/183/78 122/34/78 98/33/78
f 33/182/79 98/33/79 151/32/79 105/184/79
f 33/182/80 105/184/80 152/180/80 99/179/80
f 33/182/81 99/179/81 123/178/81 42/183/81
f 34/185/82 44/19/82 155/18/82 110/161/82
f 34/186/83 110/169/83 158/29/83 49/28/83
f 35/187/84 103/175/84 153/174/84 108/188/84
f 35/189/85 108/190/85 157/25/85 111/27/85
f 35/189/86 111/27/86 158/29/86 109/168/86
f 35/187/87 109/166/87 154/40/87 103/175/87
f 36/191/88 104/181/88 152/180/88 107/192/88
f 36/193/89 107/194/89 156/21/89 112/23/89
f 36/193/90 112/23/90 157/25/90 108/190/90
f 36/191/91 108/188/91 153/174/91 104/181/91
f 37/195/92 105/184/92 151/32/92 106/164/92
f 37/196/93 106/162/93 155/18/93 113/17/93
f 37/196/94 113/17/94 156/21/94 107/194/94
f 37/195/95 107/192/95 152/180/95 105/184/95
f 38/197/96 117/198/96 136/199/96 66/200/96
f 38/197/97 66/200/97 135/201/97 88/202/97
f 38/197/98 88/202/98 161/134/98 118/146/98
f 38/197/99 118/146/99 162/142/99 117/198/99
f 39/203/100 114/204/100 137/205/100 68/206/100
f 39/203/101 68/206/101 136/199/101 117/198/101
f 39/203/102 117/198/102 162/142/102 119/141/102
f 39/203/103 119/141/103 159/82/103 114/204/103
f 40/207/104 88/202/104 135/201/104 67/208/104
f 40/209/105 67/210/105 138/211/105 87/212/105
f 40/209/106 87/212/106 160/80/106 120/137/106
f 40/207/107 120/135/107 161/134/107 88/202/107
f 41/213/108 87/212/108 138/211/108 69/214/108
f 41/213/109 69/214/109 137/205/109 114/204/109
f 41/213/110 114/204/110 159/82/110 121/81/110
f 41/213/111 121/81/111 160/80/111 87/212/111
f 3/16/112 44/19/112 57/215/112 9/216/112
f 3/16/113 9/216/113 126/217/113 46/20/113
f 4/22/114 46/20/114 126/217/114 8/218/114
f 4/22/115 8/218/115 55/219/115 48/24/115
f 5/26/116 48/24/116 55/219/116 2/220/116
f 5/26/117 2/220/117 56/221/117 49/28/117
f 50/222/2 56/15/2 130/14/2 52/67/2
f 50/223/2 52/65/2 127/52/2 57/51/2
f 8/48/2 126/224/2 128/72/2 53/49/2
f 9/50/2 51/53/2 128/72/2 126/224/2
f 34/185/118 50/225/118 57/215/118 44/19/118
f 34/186/119 49/28/119 56/221/119 50/226/119
