# Blender v2.76 (sub 0) OBJ File: 'sconce.blend'
# www.blender.org
mtllib sconce.mtl
o sconce
v 0.385195 0.929370 0.777164
v 0.287868 0.929370 0.712132
v 0.222836 0.929370 0.614805
v 0.200000 0.929370 0.500000
v 0.222836 0.929370 0.385195
v 0.287868 0.929370 0.287868
v 0.385195 0.929370 0.222836
v 0.500000 0.929370 0.200000
v 0.500000 0.929370 0.800000
v 0.614805 0.929370 0.777164
v 0.712132 0.929370 0.712132
v 0.777164 0.929370 0.614805
v 0.800000 0.929370 0.500000
v 0.777164 0.929370 0.385195
v 0.712132 0.929370 0.287868
v 0.614805 0.929370 0.222836
v 0.606066 0.907403 0.777164
v 0.695984 0.888781 0.712132
v 0.756066 0.876337 0.614805
v 0.777164 0.871968 0.500000
v 0.756066 0.876337 0.385195
v 0.695984 0.888781 0.287868
v 0.606066 0.907403 0.222836
v 0.581179 0.888781 0.777164
v 0.650000 0.854370 0.712132
v 0.695984 0.831378 0.614805
v 0.712132 0.823304 0.500000
v 0.695984 0.831378 0.385195
v 0.650000 0.854370 0.287868
v 0.581179 0.888781 0.222836
v 0.543934 0.876338 0.777164
v 0.581179 0.831378 0.712132
v 0.606066 0.801337 0.614805
v 0.614805 0.790789 0.500000
v 0.606066 0.801337 0.385195
v 0.581179 0.831378 0.287868
v 0.543934 0.876337 0.222836
v 0.500000 0.871968 0.777164
v 0.500000 0.823304 0.712132
v 0.500000 0.790789 0.614805
v 0.500000 0.779371 0.500000
v 0.500000 0.790789 0.385195
v 0.500000 0.823304 0.287868
v 0.500000 0.871968 0.222836
v 0.456066 0.876338 0.777164
v 0.418821 0.831378 0.712132
v 0.393934 0.801337 0.614805
v 0.385195 0.790789 0.500000
v 0.393934 0.801337 0.385195
v 0.418821 0.831378 0.287868
v 0.456066 0.876337 0.222836
v 0.418821 0.888781 0.777164
v 0.350000 0.854371 0.712132
v 0.304016 0.831378 0.614805
v 0.287868 0.823305 0.500000
v 0.304016 0.831378 0.385195
v 0.350000 0.854371 0.287868
v 0.418821 0.888781 0.222836
v 0.393934 0.907404 0.777164
v 0.304016 0.888781 0.712132
v 0.243934 0.876338 0.614805
v 0.222836 0.871968 0.500000
v 0.243934 0.876338 0.385195
v 0.304016 0.888781 0.287868
v 0.393934 0.907403 0.222836
v 0.500000 1.000004 0.860000
v 0.500000 0.929362 0.860000
v 0.637766 1.000004 0.832597
v 0.637766 0.929362 0.832597
v 0.754558 1.000004 0.754558
v 0.754558 0.929362 0.754558
v 0.832597 1.000004 0.637766
v 0.832597 0.929362 0.637766
v 0.860000 1.000004 0.500000
v 0.860000 0.929362 0.500000
v 0.832597 1.000004 0.362234
v 0.832597 0.929362 0.362234
v 0.754558 1.000003 0.245442
v 0.754558 0.929362 0.245442
v 0.637766 1.000003 0.167403
v 0.637766 0.929362 0.167403
v 0.500000 1.000003 0.140000
v 0.500000 0.929362 0.140000
v 0.362234 1.000003 0.167403
v 0.362234 0.929362 0.167403
v 0.245442 1.000003 0.245441
v 0.245442 0.929362 0.245441
v 0.167403 1.000004 0.362234
v 0.167403 0.929362 0.362234
v 0.140000 1.000004 0.500000
v 0.140000 0.929362 0.500000
v 0.167403 1.000004 0.637766
v 0.167403 0.929362 0.637766
v 0.245442 1.000004 0.754559
v 0.245442 0.929362 0.754559
v 0.362234 1.000004 0.832597
v 0.362234 0.929362 0.832597
v 0.245442 1.000004 0.500000
v 0.500000 1.000004 0.754558
v 0.754558 1.000004 0.500000
v 0.500000 1.000003 0.245441
vt 0.566317 0.343773
vt 0.521000 0.445999
vt 0.483840 0.431481
vt 0.514640 0.340045
vt 0.444515 0.053127
vt 0.524872 0.130886
vt 0.478367 0.153728
vt 0.415515 0.080524
vt 0.566317 0.233295
vt 0.513246 0.243627
vt 0.440771 0.519130
vt 0.424363 0.505330
vt 0.342711 0.015433
vt 0.332679 0.034381
vt 0.420384 0.171619
vt 0.372587 0.100638
vt 0.454179 0.345213
vt 0.449108 0.256113
vt 0.398449 0.501103
vt 0.436501 0.428941
vt 0.310242 0.048021
vt 0.366579 0.501201
vt 0.380747 0.434369
vt 0.318868 0.116522
vt 0.280664 0.059886
vt 0.372996 0.270931
vt 0.350481 0.188489
vt 0.383053 0.355799
vt 0.258998 0.129717
vt 0.247005 0.068116
vt 0.289648 0.287157
vt 0.273521 0.204320
vt 0.320299 0.444598
vt 0.305775 0.369994
vt 0.332291 0.506199
vt 0.196244 0.218516
vt 0.198550 0.139946
vt 0.228816 0.385826
vt 0.206300 0.303384
vt 0.298633 0.514429
vt 0.260428 0.457792
vt 0.212717 0.073114
vt 0.125117 0.229102
vt 0.142795 0.145374
vt 0.158912 0.402695
vt 0.130188 0.318201
vt 0.269054 0.526294
vt 0.206710 0.473677
vt 0.180848 0.073212
vt 0.095456 0.142834
vt 0.154933 0.068985
vt 0.066050 0.330688
vt 0.064657 0.234270
vt 0.163781 0.493790
vt 0.100929 0.420587
vt 0.246618 0.539933
vt 0.342743 0.559887
vt 0.236553 0.014427
vt 0.236585 0.558881
vt 0.138525 0.055184
vt 0.012980 0.341019
vt 0.012980 0.230542
vt 0.134781 0.521188
vt 0.054425 0.443428
vt 0.058297 0.128316
vt 0.077494 0.726840
vt 0.238582 0.726840
vt 0.238582 0.925752
vt 0.077494 0.925752
vt 0.929769 0.330481
vt 0.882194 0.215624
vt 0.935179 0.180221
vt 0.992269 0.318049
vt 0.929770 0.454801
vt 0.992270 0.467233
vt 0.794286 0.127717
vt 0.679430 0.080141
vt 0.691861 0.017641
vt 0.829690 0.074731
vt 0.535816 0.535815
vt 0.535816 0.995435
vt 0.995435 0.995434
vt 0.995435 0.535816
vt 0.765625 0.670434
vt 0.889997 0.695174
vt 0.995435 0.765625
vt 0.765625 0.765625
vt 0.535816 0.765625
vt 0.641253 0.695174
vt 0.740886 0.889997
vt 0.670435 0.995435
vt 0.670435 0.765625
vt 0.670435 0.535815
vt 0.740886 0.641253
vt 0.765625 0.860815
vt 0.641253 0.836076
vt 0.889997 0.836076
vt 0.790364 0.641253
vt 0.860815 0.535815
vt 0.860815 0.765625
vt 0.860815 0.995434
vt 0.790364 0.889997
vn 0.789400 -0.314000 0.527500
vn 0.789400 -0.314000 -0.527500
vn 0.913700 -0.363500 0.181700
vn 0.542500 -0.215800 0.811900
vn 0.542500 -0.215800 -0.811900
vn 0.913700 -0.363500 -0.181700
vn 0.541800 -0.724000 -0.427000
vn 0.593300 -0.792900 0.139200
vn 0.411600 -0.550100 0.726600
vn 0.411600 -0.550100 -0.726600
vn 0.593300 -0.792900 -0.139200
vn 0.541800 -0.724000 0.427000
vn 0.243000 -0.727200 0.641900
vn 0.243000 -0.727200 -0.641900
vn 0.314900 -0.942700 -0.110600
vn 0.296800 -0.888400 0.350100
vn 0.296800 -0.888400 -0.350100
vn 0.314900 -0.942700 0.110600
vn 0.079400 -0.798100 -0.597200
vn 0.098500 -0.990300 -0.098500
vn 0.093900 -0.944300 0.315500
vn 0.093900 -0.944300 -0.315500
vn 0.098500 -0.990300 0.098500
vn 0.079400 -0.798100 0.597200
vn -0.093900 -0.944300 -0.315500
vn -0.098500 -0.990300 0.098500
vn -0.079400 -0.798100 0.597200
vn -0.079400 -0.798100 -0.597200
vn -0.098500 -0.990300 -0.098500
vn -0.093900 -0.944300 0.315500
vn -0.296800 -0.888400 -0.350100
vn -0.314900 -0.942700 0.110600
vn -0.243000 -0.727200 0.641900
vn -0.243000 -0.727200 -0.641900
vn -0.314900 -0.942700 -0.110600
vn -0.296800 -0.888400 0.350100
vn -0.411600 -0.550100 -0.726600
vn -0.593300 -0.792900 -0.139200
vn -0.541800 -0.724000 0.427000
vn -0.541800 -0.724000 -0.427000
vn -0.593300 -0.792900 0.139200
vn -0.411600 -0.550100 0.726600
vn 0.178800 -0.148100 0.972700
vn 0.071300 -0.344100 0.936200
vn 0.071300 -0.344100 -0.936200
vn -0.071300 -0.344100 0.936200
vn -0.071300 -0.344100 -0.936200
vn -0.178800 -0.148100 0.972700
vn -0.178800 -0.148100 -0.972700
vn 0.178800 -0.148100 -0.972700
vn -0.913700 -0.363500 -0.181700
vn -0.789400 -0.314000 0.527500
vn -0.789400 -0.314000 -0.527500
vn -0.913700 -0.363500 0.181700
vn -0.542500 -0.215800 0.811900
vn -0.542500 -0.215800 -0.811900
vn 0.195100 0.000000 0.980800
vn 0.555600 0.000000 0.831500
vn 0.831500 0.000000 0.555600
vn 0.980800 0.000000 0.195100
vn 0.980800 0.000000 -0.195100
vn 0.831500 0.000000 -0.555600
vn 0.555600 0.000000 -0.831500
vn 0.195100 0.000000 -0.980800
vn -0.195100 0.000000 -0.980800
vn -0.555600 0.000000 -0.831500
vn -0.831500 0.000000 -0.555600
vn -0.980800 0.000000 -0.195100
vn -0.980800 0.000000 0.195100
vn -0.831500 0.000000 0.555600
vn -0.195100 0.000000 0.980800
vn -0.555600 0.000000 0.831500
vn 0.000000 -1.000000 -0.000100
vn 0.000100 -1.000000 -0.000100
vn 0.000100 -1.000000 -0.000000
vn 0.000100 -1.000000 0.000100
vn 0.000000 -1.000000 0.000100
vn -0.000100 -1.000000 0.000100
vn -0.000100 -1.000000 0.000000
vn -0.000100 -1.000000 -0.000100
vn -0.000000 1.000000 -0.000000
usemtl sconce
s off
f 12/1/1 11/2/1 18/3/1 19/4/1
f 15/5/2 14/6/2 21/7/2 22/8/2
f 13/9/3 12/1/3 19/4/3 20/10/3
f 11/2/4 10/11/4 17/12/4 18/3/4
f 16/13/5 15/5/5 22/8/5 23/14/5
f 14/6/6 13/9/6 20/10/6 21/7/6
f 22/8/7 21/7/7 28/15/7 29/16/7
f 20/10/8 19/4/8 26/17/8 27/18/8
f 18/3/9 17/12/9 24/19/9 25/20/9
f 23/14/10 22/8/10 29/16/10 30/21/10
f 21/7/11 20/10/11 27/18/11 28/15/11
f 19/4/12 18/3/12 25/20/12 26/17/12
f 25/20/13 24/19/13 31/22/13 32/23/13
f 30/21/14 29/16/14 36/24/14 37/25/14
f 28/15/15 27/18/15 34/26/15 35/27/15
f 26/17/16 25/20/16 32/23/16 33/28/16
f 29/16/17 28/15/17 35/27/17 36/24/17
f 27/18/18 26/17/18 33/28/18 34/26/18
f 37/25/19 36/24/19 43/29/19 44/30/19
f 35/27/20 34/26/20 41/31/20 42/32/20
f 33/28/21 32/23/21 39/33/21 40/34/21
f 36/24/22 35/27/22 42/32/22 43/29/22
f 34/26/23 33/28/23 40/34/23 41/31/23
f 32/23/24 31/22/24 38/35/24 39/33/24
f 43/29/25 42/32/25 49/36/25 50/37/25
f 41/31/26 40/34/26 47/38/26 48/39/26
f 39/33/27 38/35/27 45/40/27 46/41/27
f 44/30/28 43/29/28 50/37/28 51/42/28
f 42/32/29 41/31/29 48/39/29 49/36/29
f 40/34/30 39/33/30 46/41/30 47/38/30
f 50/37/31 49/36/31 56/43/31 57/44/31
f 48/39/32 47/38/32 54/45/32 55/46/32
f 46/41/33 45/40/33 52/47/33 53/48/33
f 51/42/34 50/37/34 57/44/34 58/49/34
f 49/36/35 48/39/35 55/46/35 56/43/35
f 47/38/36 46/41/36 53/48/36 54/45/36
f 58/49/37 57/44/37 64/50/37 65/51/37
f 56/43/38 55/46/38 62/52/38 63/53/38
f 54/45/39 53/48/39 60/54/39 61/55/39
f 57/44/40 56/43/40 63/53/40 64/50/40
f 55/46/41 54/45/41 61/55/41 62/52/41
f 53/48/42 52/47/42 59/56/42 60/54/42
f 9/57/43 24/19/43 17/12/43 10/11/43
f 9/57/44 38/35/44 31/22/44 24/19/44
f 37/25/45 44/30/45 8/58/45 30/21/45
f 9/57/46 52/47/46 45/40/46 38/35/46
f 51/42/47 58/49/47 8/58/47 44/30/47
f 9/57/48 1/59/48 59/56/48 52/47/48
f 65/51/49 7/60/49 8/58/49 58/49/49
f 8/58/50 16/13/50 23/14/50 30/21/50
f 63/53/51 62/52/51 4/61/51 5/62/51
f 61/55/52 60/54/52 2/63/52 3/64/52
f 64/50/53 63/53/53 5/62/53 6/65/53
f 62/52/54 61/55/54 3/64/54 4/61/54
f 60/54/55 59/56/55 1/59/55 2/63/55
f 65/51/56 64/50/56 6/65/56 7/60/56
f 66/66/57 67/67/57 69/68/57 68/69/57
f 68/68/58 69/69/58 71/66/58 70/67/58
f 70/68/59 71/69/59 73/66/59 72/67/59
f 72/66/60 73/67/60 75/68/60 74/69/60
f 74/66/61 75/67/61 77/68/61 76/69/61
f 76/66/62 77/67/62 79/68/62 78/69/62
f 78/68/63 79/69/63 81/66/63 80/67/63
f 80/66/64 81/67/64 83/68/64 82/69/64
f 82/68/65 83/69/65 85/66/65 84/67/65
f 84/66/66 85/67/66 87/68/66 86/69/66
f 86/66/67 87/67/67 89/68/67 88/69/67
f 88/66/68 89/67/68 91/68/68 90/69/68
f 90/66/69 91/67/69 93/68/69 92/69/69
f 92/66/70 93/67/70 95/68/70 94/69/70
f 96/68/71 97/69/71 67/66/71 66/67/71
f 94/68/72 95/69/72 97/66/72 96/67/72
f 1/70/73 9/71/73 67/72/73 97/73/73
f 2/74/74 1/70/74 97/73/74 95/75/74
f 3/76/74 2/77/74 95/78/74 93/79/74
f 4/71/75 3/76/75 93/79/75 91/72/75
f 5/70/75 4/71/75 91/72/75 89/73/75
f 6/74/76 5/70/76 89/73/76 87/75/76
f 7/76/76 6/77/76 87/78/76 85/79/76
f 8/71/77 7/76/77 85/79/77 83/72/77
f 16/70/77 8/71/77 83/72/77 81/73/77
f 15/74/78 16/70/78 81/73/78 79/75/78
f 14/76/78 15/77/78 79/78/78 77/79/78
f 13/71/79 14/76/79 77/79/79 75/72/79
f 12/70/79 13/71/79 75/72/79 73/73/79
f 11/74/80 12/70/80 73/73/80 71/75/80
f 10/76/80 11/77/80 71/78/80 69/79/80
f 9/71/73 10/76/73 69/79/73 67/72/73
f 86/80/81 94/81/81 70/82/81 78/83/81
f 66/84/81 68/85/81 70/86/81 99/87/81
f 94/88/81 96/89/81 66/84/81 99/87/81
f 90/87/81 92/90/81 94/91/81 98/92/81
f 86/93/81 88/94/81 90/87/81 98/92/81
f 82/95/81 84/96/81 86/88/81 101/87/81
f 78/86/81 80/97/81 82/95/81 101/87/81
f 74/87/81 76/98/81 78/99/81 100/100/81
f 70/101/81 72/102/81 74/87/81 100/100/81
